<svg xmlns="http://www.w3.org/2000/svg" width="53" height="52" viewBox="0 0 53 52">
  <g fill="none" fill-rule="evenodd" stroke-width="2" transform="translate(1 1)">
    <rect width="25" height="30" x="18.5" y="10" fill="#FFF" fill-rule="nonzero" stroke="#000" rx="7.23"/>
    <path stroke="#E62249" stroke-linecap="round" stroke-linejoin="round" d="M33.6 14.85L37.4 18.65M37.4 14.85L33.6 18.65"/>
    <rect width="25" height="35" x="8.5" y="7.5" fill="#FFF" fill-rule="nonzero" stroke="#000" rx="7.23"/>
    <path stroke="#000" stroke-linecap="round" stroke-linejoin="round" d="M12 50C5.372583 50 2.66453526e-15 44.627417 1.77635684e-15 38M51 38C51 44.627417 45.627417 50 39 50M39 0C45.627417 2.22044605e-15 51 5.372583 51 12M0 12C-1.77635684e-15 5.372583 5.372583 2.22044605e-16 12-8.8817842e-16"/>
    <polyline stroke="#E62249" stroke-linecap="round" stroke-linejoin="round" points="18 16 20.5 18.5 24.5 14.5"/>
    <path stroke="#000" stroke-linecap="round" stroke-linejoin="round" d="M14 24L28 24M14 29L26 29M14 33.75L20 33.75"/>
    <path stroke="#E62249" stroke-linecap="round" stroke-linejoin="round" d="M23.06 32.31L25.94 35.19M25.94 32.31L23.06 35.19"/>
    <path stroke="#000" stroke-linecap="round" stroke-linejoin="round" d="M38 24L33.5 24M38 34L33.5 34M37 29L33.5 29"/>
  </g>
</svg>
