<svg xmlns="http://www.w3.org/2000/svg" width="53" height="52" viewBox="0 0 53 52">
  <path fill="#000" d="M13,50 C13.5522847,50 14,50.4477153 14,51 C14,51.5522847 13.5522847,52 13,52 C5.82029825,52 9.99200722e-16,46.1797017 0,39 C-1.11022302e-16,38.4477153 0.44771525,38 1,38 C1.55228475,38 2,38.4477153 2,39 C2,45.0751322 6.92486775,50 13,50 Z M51,39 C51,38.4477153 51.4477153,38 52,38 C52.5522847,38 53,38.4477153 53,39 C53,46.1797017 47.1797017,52 40,52 C39.4477153,52 39,51.5522847 39,51 C39,50.4477153 39.4477153,50 40,50 C46.0751322,50 51,45.0751322 51,39 Z M40,2 C39.4477153,2 39,1.55228475 39,1 C39,0.44771525 39.4477153,-2.22044605e-16 40,0 C47.1797017,2.44249065e-15 53,5.82029825 53,13 C53,13.5522847 52.5522847,14 52,14 C51.4477153,14 51,13.5522847 51,13 C51,6.92486775 46.0751322,2 40,2 Z M2,13 C2,13.5522847 1.55228475,14 1,14 C0.44771525,14 1.11022302e-16,13.5522847 0,13 C-1.99840144e-15,5.82029825 5.82029825,1.22124533e-15 13,0 C13.5522847,0 14,0.44771525 14,1 C14,1.55228475 13.5522847,2 13,2 C6.92486775,2 2,6.92486775 2,13 Z M42.4260213,30.2440207 C42.5729176,29.7116299 43.1235885,29.3991249 43.6559793,29.5460213 C44.1883701,29.6929176 44.5008751,30.2435885 44.3539787,30.7759793 C42.5766552,37.217466 37.3772262,42.1442737 30.8494405,43.5724351 C24.3216549,45.0005964 17.539918,42.6950509 13.2351552,37.5842146 C12.8793653,37.1618025 12.9333733,36.5309451 13.3557854,36.1751552 C13.7781975,35.8193653 14.4090549,35.8733733 14.7648448,36.2957854 C18.5913006,40.838751 24.6195112,42.8881248 30.4219873,41.618648 C36.2244634,40.3491713 40.8461781,35.9697867 42.4260213,30.2440207 Z M11.3575655,29.3693683 C11.4738942,29.9092628 11.1305263,30.4412368 10.5906317,30.5575655 C10.0507372,30.6738942 9.51876322,30.3305263 9.40243452,29.7906317 C7.92615096,22.9390348 10.5612086,15.8535457 16.1557098,11.6315379 C21.7502109,7.40953009 29.286707,6.81884265 35.4706698,10.1176906 C35.9579559,10.3776343 36.1422532,10.9833838 35.8823094,11.4706698 C35.6223657,11.9579559 35.0166162,12.1422532 34.5293302,11.8823094 C29.0324744,8.95000016 22.3333667,9.47505567 17.3604768,13.2279515 C12.3875868,16.9808473 10.0453134,23.2790599 11.3575655,29.3693683 Z M34.5446317,23.1057119 C34.7679138,23.610849 34.5394252,24.2013495 34.0342881,24.4246317 C33.529151,24.6479138 32.9386505,24.4194252 32.7153683,23.9142881 C32.241115,22.8413722 31.997403,21.6808391 32.0000009,20.5113333 C31.9954156,17.0723766 34.0634644,13.9694916 37.2393311,12.6502814 C40.4151977,11.3310713 44.0730566,12.0554951 46.50639,14.4855841 C48.9397235,16.9156731 49.669027,20.5725622 48.3540554,23.7501861 C47.0390837,26.92781 43.9389607,28.9999969 40.5000009,29 C39.9477161,29.0000005 39.5000005,28.5522856 39.5,28.0000009 C39.4999995,27.4477161 39.9477144,27.0000005 40.4999991,27 C43.1297919,26.9999977 45.5004742,25.4153841 46.5060408,22.9854364 C47.5116073,20.5554887 46.9539046,17.7590441 45.0931202,15.9007408 C43.2323358,14.0424374 40.4351496,13.4884663 38.0065457,14.497274 C35.5779418,15.5060818 33.9964927,17.8788762 33.9999975,20.512216 C33.9980185,21.4053056 34.1835653,22.2888618 34.5446317,23.1057119 Z"/>
  <path fill="#E62249" d="M38.4181391,21.8846267 C38.153969,21.4882245 38,21.0120929 38,20.5 C38,19.1192881 39.1192881,18 40.5,18 C41.8807119,18 43,19.1192881 43,20.5 C43,21.8807119 41.8807119,23 40.5,23 C40.3655932,23 40.2336637,22.9893933 40.1050028,22.9689714 C39.1613629,24.2281814 38.1594703,25.4791977 37.1275767,26.6585046 C35.7651495,28.2155642 34.4377596,29.5462156 33.1704279,30.5831233 C31.2721439,32.1362648 29.5566698,33 28,33 C26.0109594,33 24.7205626,32.3117884 22.9606362,30.7474093 C22.9900431,30.7735488 22.4466561,30.2872635 22.3024658,30.1614247 C21.33697,29.3188102 20.7392009,29 20,29 C18.5476031,29 17.4446116,29.7916693 15.8650284,31.6896293 C15.7116765,31.8738905 15.1919098,32.5099289 15.1104717,32.6084858 C14.8082626,32.9742215 14.5724302,33.2475808 14.3386779,33.4977698 C13.6474188,34.2376358 13.0238747,34.712801 12.3162278,34.9486833 L12.1234568,34.9923499 C10.7132546,35.1677911 9.28674543,35.1677911 7.87654321,34.9923499 C7.32848347,34.9241666 6.93946675,34.424603 7.00765005,33.8765432 C7.07583335,33.3284835 7.57539705,32.9394667 8.12345679,33.0076501 C9.33230057,33.1580405 10.5547036,33.1625516 11.7643608,33.0211833 C12.0726929,32.8936873 12.4326884,32.6082238 12.8772744,32.1323761 C13.078172,31.9173521 13.2901386,31.6716562 13.568713,31.3345234 C13.6445414,31.2427554 14.1673766,30.6029621 14.3277695,30.4102408 C16.2571586,28.091969 17.7785418,27 20,27 C21.3407991,27 22.3201729,27.5223327 23.6175342,28.6545753 C23.7727883,28.7900698 24.3274569,29.2864512 24.2893638,29.2525907 C25.7169374,30.5215449 26.6140406,31 28,31 C28.9846525,31 30.3311619,30.3220373 31.9039523,29.0352087 C33.0746371,28.0773757 34.3273092,26.8216258 35.6224233,25.3414954 C36.5869445,24.2391855 37.528201,23.0670608 38.4181391,21.8846267 Z"/>
</svg>
