<svg xmlns="http://www.w3.org/2000/svg" width="53" height="52" viewBox="0 0 53 52">
  <g fill="none" fill-rule="evenodd" transform="translate(1 1)">
    <path stroke="#000" stroke-linecap="round" stroke-linejoin="round" stroke-width="2" d="M12 50C5.372583 50 2.66453526e-15 44.627417 1.77635684e-15 38M51 38C51 44.627417 45.627417 50 39 50M39 0C45.627417 2.22044605e-15 51 5.372583 51 12M0 12C-1.77635684e-15 5.372583 5.372583 2.22044605e-16 12-8.8817842e-16M42.39 29.51C40.7114166 35.5936263 35.8008448 40.2467225 29.6357139 41.5955415 23.470583 42.9443606 17.0656093 40.766901 13 35.94M9.38 28.58C7.98573219 22.1090474 10.4743977 15.4171965 15.7580933 11.4297447 21.0417888 7.44229288 28.1595907 6.8844214 34 10M32.63 22.51C32.2123401 21.565117 31.9977107 20.5430723 32 19.51 31.9959542 16.4756264 33.8207031 13.7377867 36.6229384 12.5737777 39.4251737 11.4097688 42.6526962 12.0489662 44.7997551 14.1931624 46.9468141 16.3373586 47.5903172 19.5640254 46.4300481 22.3678113 45.2697789 25.1715971 42.5343763 26.9999973 39.5 27"/>
    <path stroke="#E62249" stroke-linecap="round" stroke-linejoin="round" stroke-width="2" d="M40,19 C40,19 32,31 27,31 C23,31 22,27 19,27 C15,27 13.37,32.21 11,33 C9.67178628,33.1652411 8.32821372,33.1652411 7,33"/>
    <circle cx="39.5" cy="19.5" r="2.5" fill="#E62249" fill-rule="nonzero"/>
  </g>
</svg>
