<svg xmlns="http://www.w3.org/2000/svg" width="95" height="25" viewBox="0 0 95 25">
  <path fill="#205895" d="M27.7602642,34.934431 C26.0865364,34.6941611 24.6226362,33.9957718 23.5047347,32.9042268 C22.5722629,31.9937409 21.9676843,30.9924356 21.5220171,29.620443 C20.8262201,27.4784214 20.8259757,24.7244499 21.5213959,22.6261151 C22.1953414,20.5925774 23.7127822,18.8224754 25.5699575,17.9034485 C28.1418733,16.6307309 31.7617557,16.7106781 34.1437695,18.0928065 C36.2875065,19.3366781 37.5860827,21.5468671 37.9473457,24.5665307 C38.0576518,25.4885406 37.986083,27.4359348 37.8123475,28.2398162 C37.1012757,31.5299751 35.0303293,33.8283393 31.9962374,34.6946123 C31.6692899,34.7879596 31.1622905,34.897173 30.8695716,34.9373072 C30.2501531,35.022236 28.3597349,35.0204873 27.7602635,34.9344289 Z M28.6953042,33.8508959 C29.1785665,34.0592107 30.0630385,34.0476037 30.5630464,33.8263838 C31.9423156,33.2161517 32.6817566,31.4602139 32.9228158,28.222678 C33.2587474,23.7109745 32.4801417,19.9453444 30.9375294,18.6210793 C30.2429403,18.0248053 29.1626927,17.8296183 28.3832102,18.1595458 C27.2460194,18.6408788 26.5156644,20.0657764 26.1699188,22.4775996 C25.9237132,24.1950603 25.9492301,27.7001227 26.2194135,29.2762947 C26.645621,31.762667 27.4960332,33.3339384 28.6953042,33.8508959 Z M57.3405018,34.9316756 C56.6556605,34.8625773 54.5628494,34.5159639 53.8318029,34.3505611 L53.3260408,34.2361308 L53.36548,31.5481942 C53.4604349,25.0767162 53.4723783,21.5439455 53.4109176,18.108305 C53.3507104,14.7427133 53.3331526,14.3868628 53.2027416,13.8890172 C53.0374987,13.2582039 52.7989972,12.8181811 52.5121436,12.6149005 C52.4007064,12.5359303 52.0979435,12.4240152 51.8393382,12.3662013 C50.9797571,12.1740333 51.0264496,12.2048478 51.003501,11.8145863 C50.9902818,11.5897832 51.0147568,11.4412723 51.072534,11.3957026 C51.1499911,11.3346122 58.2001927,9.99624898 58.4247481,10.0000079 C58.489274,10.0010879 58.4984139,10.8982396 58.4653561,13.9861509 C58.4418938,16.177763 58.4388799,17.9708999 58.4586599,17.9708999 C58.4784378,17.9708999 58.7360546,17.8598841 59.031141,17.7241986 C59.9206217,17.3152005 60.7404537,17.1377335 61.9311986,17.0964302 C62.7239882,17.0689306 63.0912162,17.0861516 63.4979629,17.1699042 C66.157312,17.7174843 68.1252928,19.883765 68.8130356,23.0205389 C68.9924455,23.8388209 69.0591921,25.8724548 68.9400729,26.8910825 C68.838546,27.7592741 68.5488897,28.9290515 68.2474653,29.6881799 C67.1100705,32.5526766 64.6697362,34.4214704 61.4324206,34.9071028 C60.686717,35.0189663 58.345026,35.0330284 57.3405032,34.9316756 Z M58.4724397,33.9624169 C59.0346711,34.0286157 59.6660148,34.0054757 59.9606043,33.9078722 C60.4172032,33.7565913 61.0011637,33.2936733 61.3527979,32.8042498 C62.0781524,31.7946638 62.5991995,30.2319052 62.8855527,28.2071105 C63.0226904,27.2374123 63.041195,24.5122989 62.9159698,23.7276972 C62.5315316,21.3189909 61.7912803,19.8473159 60.6644675,19.2515446 C60.1033654,18.9548771 59.3118884,18.9181206 58.5767031,19.154588 L58.0783986,19.3148642 L58.021945,21.5039073 C57.9507709,24.2637501 58.0664168,33.6972828 58.1731829,33.8408097 C58.2119124,33.8928741 58.3465779,33.9475974 58.4724397,33.9624169 Z M76.6596411,34.8975417 C73.3328788,34.288458 70.9537046,31.8938163 70.1763004,28.3720362 C70.076311,27.9190677 70.0320933,27.4122365 70.0070205,26.4316323 C69.9673493,24.8802617 70.0916604,23.9173745 70.4860725,22.7209623 C71.2433929,20.4236996 72.6006714,18.7958388 74.5722421,17.8201797 C76.6532371,16.7903714 79.4983657,16.7229225 81.3400259,17.6597367 C83.4135441,18.7144949 84.6336551,20.8205324 84.9431791,23.8791492 C84.9848486,24.2909498 85.0090027,24.7810266 84.9968586,24.9682087 L84.9747698,25.3085397 L80.0125156,25.3259776 L75.0502614,25.3434148 L75.0691783,25.9385736 C75.1129937,27.3171806 75.4049888,28.536559 75.9451637,29.5967115 C76.190688,30.0785808 76.3860868,30.3412926 76.8608136,30.8278006 C77.9332372,31.9268352 79.000095,32.3523648 80.6830905,32.3523648 C81.9033692,32.3523648 82.7809103,32.1051844 83.6986524,31.5029603 C83.9557039,31.3342793 84.2161619,31.1962676 84.2774457,31.1962676 C84.4175355,31.1962676 84.7400686,31.6177315 84.7400686,31.8007882 C84.7400686,32.1007308 83.7779613,33.0679558 82.8395521,33.7114157 C82.0709861,34.2384143 80.8521156,34.7155905 79.7951957,34.9032504 C79.0549749,35.0346795 77.3921436,35.0316519 76.6596411,34.8975397 Z M75.0111248,23.9705768 C75.0466013,24.0316459 77.9644631,23.9908826 79.3231148,23.9103373 L80,23.8702096 L79.960599,22.7870632 C79.8807882,20.5928504 79.4780114,19.1104696 78.7740778,18.4201614 C78.5118079,18.162972 78.1594246,18.0008592 77.8607865,18.0000007 C77.7867421,17.9997881 77.5684875,18.0494292 77.3757779,18.1103141 C77.0957599,18.1987805 76.9390931,18.3135086 76.5957432,18.6815383 C75.9574325,19.3657355 75.4935561,20.4768379 75.2038409,22.0154937 C75.0836398,22.6538503 74.9621566,23.8862863 75.0111248,23.9705768 Z M90.2332527,34.9833039 C89.0166884,34.8531971 87.0805703,34.430268 86.4359236,34.1538079 L86.1210603,34.0187794 L86.0781235,32.4623383 C86.0545109,31.6062954 86.0272725,30.4617239 86.0175967,29.9188455 L86,28.9317944 L86.188709,28.8415532 C86.2924936,28.7919204 86.5019677,28.7455564 86.6541927,28.7385213 L86.9309742,28.7257312 L87.1667854,29.3048153 C88.0867658,31.5640281 89.1657178,32.7821578 90.5749788,33.1526436 C91.112577,33.293975 92.1205343,33.2952177 92.5185194,33.1550418 C93.6333477,32.7623817 94.2446787,31.9201678 94.249998,30.7696397 C94.2562801,29.4070597 93.5056365,28.752366 90.6697567,27.6471036 C88.9128152,26.9623495 88.2999341,26.6098964 87.5701854,25.8646175 C86.7829759,25.0606526 86.4051413,24.1455013 86.3342081,22.8709456 C86.2484915,21.3307686 86.7316333,20.0323788 87.8021795,18.9259384 C88.87952,17.8124778 90.2781288,17.2090031 92.1833622,17.0355329 C93.8611287,16.8827735 96.436465,17.2378126 97.7857797,17.8078893 L98.0319495,17.9118927 L98.0758492,19.2991324 C98.0999943,20.0621136 98.1249657,21.0849092 98.1313434,21.5720115 L98.142938,22.4576508 L97.8123489,22.5801196 C97.2896639,22.7737531 97.2553377,22.7494858 96.9645785,21.9808451 C96.1495775,19.8263109 95.2026659,18.8068489 93.7272174,18.4954387 C92.8280157,18.3056525 92.0768941,18.5096854 91.5309517,19.0920303 C91.1050316,19.546349 90.9388562,19.9498016 90.8985893,20.6272964 C90.8549696,21.3613509 90.98645,21.7581206 91.4359621,22.2488461 C91.9899962,22.8536889 92.8976924,23.375795 94.70584,24.1296822 C96.9205013,25.0530615 97.9772269,25.8369818 98.5516915,26.9826986 C98.9247804,27.7267777 99.0304085,28.321089 98.9928798,29.465031 C98.9647127,30.3234217 98.9371807,30.4998707 98.7414521,31.0762255 C98.1033129,32.9553025 96.6627164,34.1923894 94.4372526,34.7723708 C93.6834475,34.9688215 93.5758459,34.9789865 92.0769146,34.9953609 C91.2131249,35.0047969 90.383477,34.9993738 90.2332527,34.9833066 L90.2332527,34.9833039 Z M4.08857493,33.9608926 C4.03316978,33.9380026 4.00527646,33.7679641 4.00527646,33.4531023 C4.00527646,32.8877838 3.97008419,32.9130952 5.03817746,32.7101985 C5.85737764,32.5545821 6.15046143,32.3954472 6.51221228,31.9098449 C7.21360424,30.9683203 7.36520479,29.1554577 7.36677613,21.6908262 C7.36825218,14.6806522 7.23635072,13.2059617 6.51095221,12.1225088 C6.18911472,11.6418134 5.64674694,11.3807976 4.73830297,11.2694179 L4.03859585,11.1836301 L4.01929792,10.6243429 L4,10.0650558 L4.21921425,10.0250609 C4.33978205,10.003064 8.57586672,9.99376922 13.6327361,10.0044054 L22.8270444,10.0237448 L22.8701537,10.2966589 C22.8938638,10.4467617 22.9327788,11.9864024 22.9566315,13.7180825 L23,16.8665909 L22.5259438,17.0140165 C21.8123584,17.2359325 21.816676,17.2386358 21.495669,16.3689997 C20.707179,14.2329105 19.8030308,13.0020614 18.5658486,12.3805287 C17.7125691,11.9518603 17.3180396,11.9000298 14.9083202,11.9000298 L12.8111846,11.9000298 L12.7750338,12.2582297 C12.7072408,12.9299425 12.600197,17.2508951 12.6009386,19.2857699 L12.6016783,21.3155692 L13.218087,21.311953 C13.5571118,21.3099608 14.2256266,21.2844194 14.7036759,21.2551876 C15.4223131,21.2112436 15.6358377,21.1721855 15.9364932,21.0296806 C16.675202,20.6795461 17.177761,19.9089326 17.4856494,18.6542376 L17.6446009,18.0064846 L18.1885232,17.9866683 L18.7324456,17.966852 L18.7324456,22.0660832 L18.7324456,26.1653144 L18.1883147,26.1454981 L17.6441837,26.1256818 L17.4897337,25.4775106 C17.1995372,24.2596603 16.6410569,23.3877916 15.9509458,23.07524 C15.6322372,22.9308971 14.8436226,22.8488591 13.3180452,22.8013468 L12.6016783,22.779036 L12.6016783,24.3190458 C12.6016783,25.9972408 12.691786,28.2675342 12.8072963,29.4996592 C12.9683235,31.2173115 13.3970288,32.1664675 14.1669418,32.5099225 C14.3139583,32.5755065 14.7791003,32.6820344 15.2005905,32.746651 C15.6220808,32.8112682 16.0194145,32.8918823 16.0835543,32.9257939 C16.2462162,33.011796 16.2558155,33.9013891 16.0947636,33.9646649 C15.968725,34.0141845 4.20862454,34.0104893 4.08857493,33.9608919 L4.08857493,33.9608926 Z M38.080813,34.9566618 C38.0194216,34.9162374 37.9993619,34.7558141 38.0135053,34.4183859 L38.0336538,33.9376975 L38.2692308,33.8858543 C38.3987981,33.8573405 38.6770979,33.8007443 38.8876754,33.7600847 C39.5393794,33.6342491 39.9139104,33.2686654 40.1246535,32.5526585 C40.2963439,31.9693312 40.3720294,30.1031718 40.3759804,26.3557302 C40.3808131,21.772474 40.2884245,20.6901238 39.8399998,20.0765695 C39.5969645,19.7440376 39.4217707,19.649471 38.8320563,19.5325 C38.5410118,19.4747706 38.2347356,19.412874 38.1514423,19.394952 C38.0165597,19.3659298 38,19.3205145 38,18.9796243 C38,18.6481484 38.0202852,18.5882613 38.1514423,18.5325234 C38.3528909,18.4469139 45.0207308,17.0695591 45.2337219,17.0695591 L45.3998871,17.0695591 L45.3673028,18.0955593 C45.3493808,18.6598594 45.3207292,19.481529 45.3036324,19.9214918 L45.272547,20.7214241 L45.5141056,20.2712347 C46.2873936,18.8300711 47.1546061,17.9354581 48.3077733,17.3892976 C48.9408035,17.0894837 49.363168,17 50.1452618,17 C51.0727773,17 52,17.3127615 52,17.625622 C52,17.8359896 50.3658608,22.2983134 50.2757331,22.334055 C50.2317663,22.3514915 49.9126774,22.2253595 49.5666465,22.0537636 C48.8450004,21.6958989 48.1679658,21.5209085 47.5107513,21.5223846 C46.6923267,21.5242209 45.7780958,21.8357668 45.417134,22.235831 C45.2627349,22.4069553 45.262008,22.4172445 45.2236473,24.9729198 C45.1856582,27.5038313 45.2672735,30.5910081 45.4049964,31.8326526 C45.5223238,32.8904247 45.7942806,33.4111974 46.3559666,33.653675 C46.5433513,33.7345683 47.7289163,33.9024379 48.1158117,33.9028595 C48.1451337,33.9028914 48.1602779,34.1455061 48.1494656,34.4420027 L48.1298077,34.9810876 L43.1490385,34.9976684 C40.4096154,35.0067876 38.1289138,34.9883349 38.080813,34.9566618 Z" transform="translate(-4 -10)"/>
</svg>
