<svg xmlns="http://www.w3.org/2000/svg" width="115" height="31" viewBox="0 0 115 31">
  <g fill="none">
    <path fill="#C92C2E" d="M11.7111425,8.0695515 L11.0790492,11.8860109 L8.4810383,11.8860109 L6.35441911,24.7314337 L0.142405513,24.7314337 L2.26902471,11.8860109 L0.208471768,11.8860109 L0.840565132,8.0695515 L2.93147284,8.0695515 C3.90461093,2.18622096 6.21335872,1.23255937 10.1844764,1.23255937 L12.8431967,1.23255937 L12.153965,5.39893644 C10.1219812,5.39893644 9.40596588,5.39893644 9.11313167,8.0695515 L11.7111425,8.0695515 Z M16.386479,15.5131374 L12.4051668,7.19315892 L19.5386589,7.19315892 L20.8645319,11.553321 L23.7397189,7.19315892 L30.78088,7.19315892 L23.8966816,15.4789847 L27.9887909,24.6319097 L20.8239063,24.6319097 L19.3558436,19.6399226 L16.1925839,24.6319097 L9.08863775,24.6319097 L16.386479,15.5131374 Z"/>
    <path fill="#000" d="M35.4521794,25.7871022 C35.4195446,25.9840364 35.4920664,26.2803754 35.7223231,26.5429543 C35.9525798,26.8074088 36.3822714,26.9705828 37.0186502,26.9705828 C38.8371341,26.9705828 39.7092087,26.0834412 40.1098916,23.6151995 L40.3401483,22.2029001 C39.2704519,23.1894466 37.7619985,24.0765882 35.4866273,24.0765882 C31.0899935,24.0765882 29.1826703,20.3273364 29.898823,15.9178863 C30.5895931,11.6753614 33.2021907,7.16838196 38.4183208,7.16838196 C40.327457,7.16838196 41.9410669,8.2543333 42.7895719,9.93296276 L43.15762,7.66165519 L48.7073503,7.66165519 L46.4519225,21.5445772 C45.6124827,26.7080039 44.408621,30.7535947 36.5853324,30.7535947 C30.9757717,30.7535947 29.0049919,28.3191131 29.1137746,25.7871022 L35.4521794,25.7871022 Z M36.1955278,15.9854066 C35.9181319,17.6959207 36.4439149,19.3070298 38.1372988,19.3389144 C40.0609394,19.4383193 41.0834967,17.6302759 41.3826491,15.7865969 C41.6926798,13.8791487 41.3210056,12.0711053 39.3194041,12.0711053 C37.4138939,12.0373452 36.5599498,13.7478592 36.1955278,15.9854066 Z M65.8678046,24.3730223 L59.8958569,24.3730223 L60.3158173,21.86793 C58.3140677,24.2098483 56.626826,24.8606902 53.9664602,24.8606902 C50.4384229,24.8606902 48.5310257,22.5836707 49.350596,17.7069921 L51.089639,7.332461 L57.5259482,7.332461 L55.9830101,16.5351058 C55.5889503,18.8770241 56.2364663,19.6261413 57.7849546,19.6261413 C59.6405505,19.6261413 60.4749212,18.1612834 60.9152321,15.5282478 L62.2916661,7.332461 L68.7261253,7.332461 L65.8678046,24.3730223 Z M68,24 L70.9627593,7.05571305 L77.6342414,7.05571305 L74.6714821,24 L68,24 Z M72.180463,0.102839694 L78.8500274,0.102839694 L78.0139348,4.8892781 L71.3424528,4.8892781 L72.180463,0.102839694 Z M88.1979612,24.3765646 L88.5768701,22.1124096 C86.7299179,24.1829682 85.2399088,24.8614772 83.187943,24.8614772 C78.3518202,24.8614772 76.5433079,21.01352 77.3432268,16.2270816 C78.282262,10.6017258 81.8626769,6.94736493 85.6883759,6.94736493 C87.7092236,6.94736493 89.0308287,7.46362177 90.0979973,9.14514404 L91.4415682,1.09338114 L97.809801,1.09338114 L93.9236963,24.3765646 L88.1979612,24.3765646 Z M89.1571317,16.0666732 C89.4701434,14.1897109 89.1974022,12.1523401 87.0850306,12.1523401 C84.972659,12.1523401 84.0354543,14.2874309 83.7224426,16.1625495 C83.4259051,17.9417918 83.5082766,20.0105067 85.5895301,20.0105067 C87.7934256,20.0105067 88.8276456,18.0376681 89.1571317,16.0666732 Z M102.52082,17.5347758 C102.185503,19.5055555 103.435154,20.8109478 105.1209,20.8109478 C106.132347,20.8109478 107.132801,20.332304 107.759458,19.3478206 L113.857461,19.3478206 C112.052614,23.4815629 107.774117,24.8485987 104.036159,24.8485987 C98.8873041,24.8485987 95.4223633,21.7954311 96.3733439,16.1985617 C97.3023365,10.7304184 101.850186,7.23305491 106.99904,7.23305491 C112.94496,7.23305491 115.805231,11.4937103 114.687508,17.5347758 L102.52082,17.5347758 Z M108.884511,14.1643254 C109.144702,12.6377416 108.059961,11.2707058 106.557448,11.2707058 C104.657319,11.2707058 103.396675,12.3839153 103.092507,14.1643254 L108.884511,14.1643254 Z"/>
  </g>
</svg>
