<svg xmlns="http://www.w3.org/2000/svg" xmlns:xlink="http://www.w3.org/1999/xlink" width="920" height="387" viewBox="0 0 920 387">
  <defs>
    <circle id="infographic-new-a" cx="8" cy="8" r="8"/>
    <circle id="infographic-new-b" cx="8" cy="8" r="8"/>
    <circle id="infographic-new-c" cx="3" cy="88" r="3"/>
    <circle id="infographic-new-d" cx="23" cy="3" r="3"/>
    <circle id="infographic-new-e" cx="3" cy="88" r="3"/>
    <circle id="infographic-new-f" cx="23" cy="3" r="3"/>
    <circle id="infographic-new-g" cx="3" cy="88" r="3"/>
    <circle id="infographic-new-h" cx="23" cy="3" r="3"/>
    <circle id="infographic-new-i" cx="3" cy="88" r="3"/>
    <circle id="infographic-new-j" cx="23" cy="3" r="3"/>
  </defs>
  <g fill="none" fill-rule="evenodd" transform="translate(0 -4)">
    <g transform="translate(0 84)">
      <g stroke="#C9D5DE" stroke-linecap="round" stroke-width="2" transform="translate(90 144)">
        <path d="M202,60 L34,60 C17.4314575,60 4,46.5685425 4,30 L4,2"/>
        <polyline stroke-linejoin="round" points="0 4 4 0 8 4"/>
      </g>
      <g stroke="#C9D5DE" stroke-linecap="round" stroke-width="2" transform="translate(628 144)">
        <path d="M198,0 L198,30 C198,46.5685425 184.568542,60 168,60 L2,60"/>
        <polyline stroke-linejoin="round" points="4 64 0 60 4 56"/>
      </g>
      <g stroke="#C9D5DE" stroke-linecap="round" stroke-width="2" transform="translate(628 20)">
        <path d="M1.13686838e-13,0 L168,3.55271368e-15 C184.568542,5.09121799e-16 198,13.4314575 198,30 L198,58"/>
        <polyline stroke-linejoin="round" points="202 56 198 60 194 56"/>
      </g>
      <g stroke="#C9D5DE" stroke-linecap="round" stroke-width="2" transform="translate(94 16)">
        <path d="M0,64 L0,34 C-2.02906125e-15,17.4314575 13.4314575,4 30,4 L196,4"/>
        <polyline stroke-linejoin="round" points="194 0 198 4 194 8"/>
      </g>
      <g transform="translate(732 92)">
        <rect width="188" height="40" fill="#90A4B3" rx="20"/>
        <text fill="#FFF" font-family="SourceSansPro-Black, Source Sans Pro" font-size="15" font-weight="700">
          <tspan x="23.29" y="25">User Processing Jobs</tspan>
        </text>
      </g>
      <g transform="translate(628 84)">
        <text fill="#90A4B3" font-family="SourceSansPro-Black, Source Sans Pro" font-size="12" font-weight="700">
          <tspan x="27.16" y="52">Tokens</tspan>
        </text>
        <text fill="#90A4B3" font-family="SourceSansPro-Black, Source Sans Pro" font-size="12" font-weight="700">
          <tspan x="30.556" y="12">RNDR</tspan>
        </text>
        <g stroke="#C9D5DE" stroke-linecap="round" stroke-width="2" transform="translate(0 25)">
          <path d="M0,3 L90,3"/>
          <polyline stroke-linejoin="round" points="89 0 92 3 89 6"/>
        </g>
        <g transform="translate(38 20)">
          <use fill="#F3B65E" xlink:href="#infographic-new-a"/>
          <circle cx="8" cy="8" r="10" stroke="#F0F3F5" stroke-width="4"/>
          <circle cx="8" cy="8" r="5" fill="#CD984B"/>
        </g>
      </g>
      <g transform="translate(304)">
        <rect width="312" height="224" fill="#E62249" rx="5"/>
        <text fill="#FFF" font-family="SourceSansPro-Black, Source Sans Pro" font-size="12" font-weight="700">
          <tspan x="191.372" y="154">Blockchain</tspan>
        </text>
        <text fill="#FFF" font-family="SourceSansPro-Black, Source Sans Pro" font-size="12" font-weight="700">
          <tspan x="46.948" y="154">Smart Contracts</tspan>
        </text>
        <g transform="translate(191 71)">
          <circle cx="30" cy="30" r="30" fill="#B22240" opacity=".65"/>
          <g stroke="#FFF" stroke-width="2" transform="translate(14 14)" class="blockchain">
            <circle cx="16" cy="29" r="3"/>
            <circle cx="16" cy="16" r="3"/>
            <circle cx="16" cy="3" r="3"/>
            <circle cx="29" cy="23" r="3"/>
            <circle cx="29" cy="9" r="3"/>
            <circle cx="3" cy="23" r="3"/>
            <circle cx="3" cy="9" r="3"/>
            <path stroke-linecap="round" d="M15.9951172 9L15.9951172 10.0029297M15.9951172 22L15.9951172 23.0029297M3 15L3 17.0029297M29 15L29 17.0029297"/>
            <polyline stroke-linecap="round" points="21.688 5.624 22.5 5.999 23.313 6.374"/>
            <polyline stroke-linecap="round" points="8.688 25.624 9.5 25.999 10.313 26.374"/>
            <polyline stroke-linecap="round" points="8.69 6.375 9.096 6.188 9.502 6 9.908 5.813 10.314 5.625"/>
            <polyline stroke-linecap="round" points="21.69 26.375 22.096 26.188 22.502 26 22.908 25.813 23.314 25.625"/>
            <polyline stroke-linecap="round" points="21.484 13.048 21.688 12.938 22.5 12.501 23.313 12.064 23.516 11.954"/>
            <polyline stroke-linecap="round" points="8.484 13.048 8.688 12.938 9.5 12.501 10.313 12.064 10.516 11.954" transform="matrix(-1 0 0 1 19 0)"/>
          </g>
        </g>
        <path fill="#FFF" d="M155,100 L155,98 C155,97.4477153 155.447715,97 156,97 C156.552285,97 157,97.4477153 157,98 L157,100 L159,100 C159.552285,100 160,100.447715 160,101 C160,101.552285 159.552285,102 159,102 L157,102 L157,104 C157,104.552285 156.552285,105 156,105 C155.447715,105 155,104.552285 155,104 L155,102 L153,102 C152.447715,102 152,101.552285 152,101 C152,100.447715 152.447715,100 153,100 L155,100 Z"/>
        <g transform="translate(61 71)">
          <circle cx="30" cy="30" r="30" fill="#B22240" opacity=".65"/>
          <g transform="translate(17 13)" class="ethereum">
            <rect width="24" height="32" x="1" y="1" stroke="#FFF" stroke-width="2" rx="7.5"/>
            <path stroke="#FFF" stroke-linecap="round" stroke-linejoin="round" stroke-width="2" d="M15,7 L12.8505115,9.57938624 C12.6737294,9.79152469 12.3584471,9.82018672 12.1463086,9.64340468 C12.1346988,9.63372985 12.1235336,9.62353363 12.1128474,9.61284743 L11,8.5"/>
            <g fill="#FFF" transform="translate(6 15)">
              <rect width="14" height="2" rx="1"/>
              <rect width="14" height="2" y="5" rx="1"/>
              <rect width="6" height="2" y="10" rx="1"/>
            </g>
            <g stroke="#FFF" stroke-linecap="round" stroke-linejoin="round" stroke-width="2" transform="translate(15 24)">
              <path d="M3.5 3.5L.5.5M3.5.5L.5 3.5"/>
            </g>
          </g>
        </g>
        <text fill="#FFF" font-family="SourceSansPro-Bold, Source Sans Pro" font-size="14" font-weight="bold">
          <tspan x="88.128" y="195">Powered by Ethereum</tspan>
        </text>
        <text fill="#FFF" font-family="SourceSansPro-Black, Source Sans Pro" font-size="15" font-weight="700" letter-spacing="3.5">
          <tspan x="69.86" y="39">RENDER NETWOR</tspan> <tspan x="232.72" y="39">K</tspan>
        </text>
      </g>
      <g transform="translate(200 84)">
        <text fill="#90A4B3" font-family="SourceSansPro-Black, Source Sans Pro" font-size="12" font-weight="700">
          <tspan x="27.16" y="52">Tokens</tspan>
        </text>
        <text fill="#90A4B3" font-family="SourceSansPro-Black, Source Sans Pro" font-size="12" font-weight="700">
          <tspan x="30.556" y="12">RNDR</tspan>
        </text>
        <g stroke="#C9D5DE" stroke-linecap="round" stroke-width="2" transform="translate(0 25)">
          <path d="M0,3 L90,3"/>
          <polyline stroke-linejoin="round" points="89 0 92 3 89 6"/>
        </g>
        <g transform="translate(38 20)">
          <use fill="#F3B65E" xlink:href="#infographic-new-b"/>
          <circle cx="8" cy="8" r="10" stroke="#F0F3F5" stroke-width="4"/>
          <circle cx="8" cy="8" r="5" fill="#CD984B"/>
        </g>
      </g>
      <g transform="translate(0 92)">
        <rect width="188" height="40" fill="#90A4B3" rx="20"/>
        <text fill="#FFF" font-family="SourceSansPro-Bold, Source Sans Pro" font-size="15" font-weight="bold">
          <tspan x="23.058" y="25">User Requesting Jobs</tspan>
        </text>
      </g>
    </g>
    <g transform="translate(27 285)">
      <g transform="translate(200)">
        <path stroke="#C9D5DE" stroke-dasharray="3 7" stroke-linecap="round" stroke-width="2" d="M23,10 L23,78 C23,83.5228475 18.5228475,88 13,88 L10,88"/>
        <use fill="#90A4B3" xlink:href="#infographic-new-c"/>
        <circle cx="3" cy="88" r="4.5" stroke="#F0F3F5" stroke-width="3"/>
        <g>
          <use fill="#90A4B3" xlink:href="#infographic-new-d"/>
          <circle cx="23" cy="3" r="4.5" stroke="#F0F3F5" stroke-width="3"/>
        </g>
      </g>
      <text fill="#778B9A" font-family="SourceSansPro-Regular, Source Sans Pro" font-size="14">
        <tspan x="8.378" y="64">Once completed and delivered, </tspan>
        <tspan x="6.466" y="83">RNDR tokens are transferred via </tspan>
        <tspan x="78.876" y="102">the smart contract.</tspan>
      </text>
    </g>
    <g transform="translate(561 285)">
      <g transform="translate(200)">
        <path stroke="#C9D5DE" stroke-dasharray="3 7" stroke-linecap="round" stroke-width="2" d="M23,10 L23,78 C23,83.5228475 18.5228475,88 13,88 L10,88"/>
        <use fill="#90A4B3" xlink:href="#infographic-new-e"/>
        <circle cx="3" cy="88" r="4.5" stroke="#F0F3F5" stroke-width="3"/>
        <g>
          <use fill="#90A4B3" xlink:href="#infographic-new-f"/>
          <circle cx="23" cy="3" r="4.5" stroke="#F0F3F5" stroke-width="3"/>
        </g>
      </g>
      <text fill="#778B9A" font-family="SourceSansPro-Regular, Source Sans Pro" font-size="14">
        <tspan x="10.612" y="83">GPU owner uses OctaneRender </tspan>
        <tspan x="16.504" y="102">to process the requested job.</tspan>
      </text>
    </g>
    <g transform="translate(667)">
      <g transform="translate(0 16)">
        <path stroke="#C9D5DE" stroke-dasharray="3 7" stroke-linecap="round" stroke-width="2" d="M3,81 L3,13 C3,7.4771525 7.4771525,3 13,3 L16,3"/>
        <use fill="#90A4B3" xlink:href="#infographic-new-g"/>
        <circle cx="3" cy="88" r="4.5" stroke="#F0F3F5" stroke-width="3"/>
        <g>
          <use fill="#90A4B3" xlink:href="#infographic-new-h"/>
          <circle cx="23" cy="3" r="4.5" stroke="#F0F3F5" stroke-width="3"/>
        </g>
      </g>
      <text fill="#778B9A" font-family="SourceSansPro-Regular, Source Sans Pro" font-size="14">
        <tspan x="36" y="14">Protocol calculates the amount of </tspan>
        <tspan x="36" y="33">RNDR required to perform the job.</tspan>
        <tspan x="36" y="52">Details attached to a smart contract</tspan>
        <tspan x="36" y="71">and sent across the Render Network.</tspan>
      </text>
    </g>
    <g transform="translate(133)">
      <g transform="translate(0 16)">
        <path stroke="#C9D5DE" stroke-dasharray="3 7" stroke-linecap="round" stroke-width="2" d="M3,81 L3,13 C3,7.4771525 7.4771525,3 13,3 L16,3"/>
        <use fill="#90A4B3" xlink:href="#infographic-new-i"/>
        <circle cx="3" cy="88" r="4.5" stroke="#F0F3F5" stroke-width="3"/>
        <g>
          <use fill="#90A4B3" xlink:href="#infographic-new-j"/>
          <circle cx="23" cy="3" r="4.5" stroke="#F0F3F5" stroke-width="3"/>
        </g>
      </g>
      <text fill="#778B9A" font-family="SourceSansPro-Regular, Source Sans Pro" font-size="14">
        <tspan x="36" y="14">User submits a job</tspan>
        <tspan x="36" y="33">in ORC.</tspan>
      </text>
    </g>
  </g>
</svg>
