<svg xmlns="http://www.w3.org/2000/svg" width="158" height="35" viewBox="0 0 158 35">
  <g fill="none">
    <path fill="#099FC9" d="M116.462326,13.6789829 C112.969452,13.6789829 111.270697,15.5615234 111.270697,19.4358477 C111.270697,22.9100369 113.317849,25.0694964 116.612366,25.0694964 C117.244313,25.0694964 117.969081,25.030118 118.955783,24.9424694 L118.955783,13.9089018 C117.967809,13.7526586 117.174379,13.6789829 116.462326,13.6789829 M116.494114,27.8767937 C110.96426,27.8767937 107.532419,24.6769829 107.532419,19.5247667 C107.532419,14.1693072 110.699783,10.8424694 115.801134,10.8424694 L116.233452,10.8399288 C116.870485,10.8399288 117.752922,10.8602532 118.955783,11.0126856 L118.955783,4.55209099 L122.565637,4.55209099 L122.565637,27.2962802 C122.565637,27.2962802 119.138882,27.8767937 116.494114,27.8767937 Z M67.1116002,28 L57.3682514,11.4096898 L57.3657077,28 L53.9699707,28 L53.9699707,7 L58.7227307,7 L68.4660796,23.4426588 L68.4660796,7 L71.899971,7 L71.899971,28 L67.1116002,28 Z M98.1275974,27.6879045 C96.488604,27.6879045 94.7771338,27.5049856 92.7401536,27.1137423 L92.5252662,27.0718234 L92.5252662,24.066364 L92.8469616,24.1374991 C94.6410808,24.5185802 96.189796,24.8475802 97.7397828,24.8475802 C98.9935046,24.8475802 101.91165,24.649418 101.91165,22.8087964 C101.91165,21.2628775 99.893743,20.8779856 98.2738225,20.5667694 L98.1721007,20.5477153 C97.8707497,20.4880126 97.5872,20.4321207 97.3430675,20.3698775 C94.9691338,19.7537964 92.4349881,18.8290396 92.4349881,15.6495532 C92.4349881,12.5488234 94.8928424,10.770445 99.1778755,10.770445 C101.232657,10.770445 102.725425,10.9927423 103.925743,11.1705802 L104.510644,11.2582288 L104.510644,14.1696883 L104.197849,14.1150667 C102.842405,13.8648234 101.249187,13.6082288 99.7182728,13.6082288 C98.0195179,13.6082288 95.9965245,13.9257964 95.9965245,15.4399586 C95.9965245,16.6937153 97.6495046,17.0519315 99.5644185,17.4673099 C102.239703,18.050364 105.55965,18.774418 105.55965,22.4200937 C105.55965,25.7672559 102.852577,27.6879045 98.1275974,27.6879045 Z M132.68836,27.6873964 C128.953897,27.6873964 125.496625,27.0319369 125.496625,22.2696937 C125.496625,17.0908018 130.842109,17.0908018 134.036175,17.0908018 C134.356599,17.0908018 135.858268,17.1593964 136.31983,17.1797207 C136.316016,14.2733423 136.276599,13.5797748 132.057685,13.5797748 C130.385632,13.5797748 128.527936,13.9113153 126.887672,14.2047477 L126.574877,14.2606396 L126.574877,11.3898288 L126.788493,11.3466396 C128.688148,10.9592072 130.520413,10.7699369 132.388281,10.7699369 C136.477499,10.7699369 139.941128,11.1827748 139.941128,16.2498829 L139.941128,27.3012342 L139.693181,27.3266396 C136.860228,27.6442072 134.610903,27.6873964 132.68836,27.6873964 Z M133.947168,19.6529369 C130.867539,19.6529369 128.958983,20.1051532 128.958983,22.3598829 C128.958983,24.9664775 131.39395,25.184964 133.677605,25.184964 C134.532069,25.184964 136.066797,25.076991 136.534718,25.0414234 L136.534718,19.7405856 C135.873526,19.7151802 134.154426,19.6529369 133.947168,19.6529369 Z M82.0919099,27.6873964 C78.3574464,27.6873964 74.9001748,27.0319369 74.9001748,22.2696937 C74.9001748,17.0908018 80.2456583,17.0908018 83.4397245,17.0908018 C83.7601483,17.0908018 85.2618172,17.1593964 85.7233801,17.1797207 C85.7195656,14.2733423 85.6814199,13.5797748 81.462506,13.5797748 C79.7891815,13.5797748 77.9314861,13.9113153 76.2912212,14.2047477 L75.9784265,14.2606396 L75.9784265,11.3898288 L76.1920424,11.3466396 C78.0929695,10.9592072 79.9239629,10.7699369 81.7905589,10.7699369 C85.881049,10.7699369 89.3459497,11.1827748 89.3459497,16.2498829 L89.3459497,27.3012342 L89.0954596,27.3266396 C86.2637775,27.6442072 84.014453,27.6873964 82.0919099,27.6873964 Z M83.3507179,19.6529369 C80.2710887,19.6529369 78.3625325,20.1051532 78.3625325,22.3598829 C78.3625325,24.9664775 80.7987709,25.184964 83.081155,25.184964 C83.9368901,25.184964 85.470347,25.076991 85.9395391,25.0414234 L85.9395391,19.7405856 C85.2770755,19.7151802 83.5592477,19.6529369 83.3507179,19.6529369 Z M154.301838,34.6596559 L154.301838,27.6096559 C152.892991,27.8065477 152.144064,27.8065477 151.541362,27.8065477 C150.113441,27.8065477 148.527852,27.4966018 147.297017,26.9770613 C144.550527,25.8376288 142.908991,22.9350613 142.908991,19.2144396 C142.908991,17.3534937 143.361653,13.9580613 146.394236,12.1276018 C147.911163,11.2193586 149.71164,10.8319261 152.409812,10.8319261 C153.377441,10.8319261 154.682024,10.9068721 155.944646,10.9792775 L157.990527,11.0847099 L157.990527,33.0273586 L154.301838,34.6596559 Z M152.138977,13.6697099 C148.476991,13.6697099 146.619295,15.5344667 146.619295,19.2144396 C146.619295,23.9461964 149.392487,24.9395477 151.720646,24.9395477 C152.286474,24.9395477 152.92605,24.9395477 154.334898,24.7617099 L154.334898,13.7713315 C153.229944,13.6963856 152.722607,13.6697099 152.138977,13.6697099 Z M24.4160318,24.8118316 C24.1400022,25.5056818 23.4068676,26 22.5489676,26 C21.6899636,26 20.9579331,25.5056818 20.6819035,24.8118316 L18,18.131016 L21.5850723,9.18816845 C21.8611019,8.49532086 22.5931324,8 23.4521365,8 L23.4532406,8 C24.3111406,8 25.0442751,8.49532086 25.3192006,9.18816845 L28,15.868984 L24.4160318,24.8118316 Z"/>
    <path fill="#0082A4" d="M10.37611,34 L0,34 L9.84674878,9.14348278 C10.1103791,8.4766924 10.8067411,8 11.6228397,8 L22,8 C21.1828511,8 20.4864891,8.4766924 20.2239091,9.14348278 L10.37611,34 Z M34.3766054,26 L24,26 C24.8161375,26 25.5135832,25.5242549 25.7761757,24.8564748 L35.6233946,0 L46,0 L36.1527811,24.8564748 C35.8901886,25.5242549 35.1937933,26 34.3766054,26 Z"/>
  </g>
</svg>
