<svg xmlns="http://www.w3.org/2000/svg" width="169" height="60" viewBox="0 0 169 60">
  <g fill="none" fill-rule="evenodd">
    <path fill="#242B35" d="M70.5805664,42 L70.5805664,16.8950195 L79.8603516,16.8950195 C81.1250063,16.8950195 82.2215937,16.9519851 83.1501465,17.065918 C84.0786993,17.1798508 84.9616657,17.3877752 85.7990723,17.6896973 C86.6364788,17.9916193 87.3143692,18.3989232 87.8327637,18.9116211 C88.3511582,19.424319 88.7613103,20.0936645 89.0632324,20.9196777 C89.3651545,21.745691 89.5161133,22.7226506 89.5161133,23.8505859 C89.5161133,27.1774255 88.0065255,29.3649036 84.9873047,30.4130859 C85.6025421,31.1080764 86.3658809,32.3954984 87.2773438,34.2753906 L91.0029297,42 L85.9443359,42 L83.0219727,35.4545898 C81.9168239,33.1075729 81.233237,31.7176128 80.9711914,31.284668 C80.7775055,31.2732747 80.1337945,31.2675781 79.0400391,31.2675781 L75.1606445,31.2333984 L75.1606445,42 L70.5805664,42 Z M80.2705078,27.9179688 C82.0478604,27.9179688 83.3238894,27.6018098 84.0986328,26.9694824 C84.8733763,26.337155 85.2607422,25.3203195 85.2607422,23.9189453 C85.2607422,22.6884704 84.8676797,21.7827177 84.081543,21.2016602 C83.2954062,20.6206026 82.0934326,20.3300781 80.4755859,20.3300781 L75.1606445,20.3300781 L75.1606445,27.9008789 C75.3315438,27.9008789 76.1803309,27.9037272 77.7070312,27.9094238 C79.2337316,27.9151205 80.0882152,27.9179688 80.2705078,27.9179688 Z M94.7354492,42 L94.7354492,16.9633789 L99.6573242,16.9633789 C100.546001,18.3533598 102.351809,21.1560662 105.074805,25.371582 C107.7978,29.5870979 109.455498,32.1505488 110.047949,33.0620117 C110.218849,33.3240573 110.512221,33.7655405 110.928076,34.3864746 C111.343931,35.0074087 111.637304,35.4488919 111.808203,35.7109375 C111.72845,31.8030404 111.688574,29.7750658 111.688574,29.6269531 L111.688574,16.9633789 L115.909766,16.9633789 L115.909766,42 L110.919531,42 L99.6231445,24.3974609 L98.802832,23.0473633 C98.8939783,26.0551908 98.9395508,28.1686137 98.9395508,29.3876953 L98.9395508,42 L94.7354492,42 Z M126.341504,38.2915039 L129.656934,38.2915039 C132.516648,38.2915039 134.692733,37.5424066 136.185254,36.0441895 C137.677774,34.5459723 138.424023,32.3613425 138.424023,29.4902344 C138.424023,26.4140471 137.654988,24.1781483 136.116895,22.7824707 C134.578801,21.3867932 132.260302,20.6889648 129.161328,20.6889648 L126.341504,20.6889648 L126.341504,38.2915039 Z M121.710156,42 L121.710156,16.9633789 L128.95625,16.9633789 C131.143761,16.9633789 133.103377,17.2140274 134.835156,17.715332 C136.566936,18.2166366 138.056586,18.9714305 139.30415,19.9797363 C140.551715,20.9880422 141.508737,22.2868573 142.175244,23.8762207 C142.841751,25.4655841 143.175,27.302724 143.175,29.3876953 C143.175,33.4323119 141.955937,36.5454806 139.517773,38.7272949 C137.07961,40.9091092 133.701552,42 129.383496,42 L121.710156,42 Z M147.847461,42 L147.847461,16.8950195 L157.127246,16.8950195 C158.391901,16.8950195 159.488488,16.9519851 160.417041,17.065918 C161.345594,17.1798508 162.22856,17.3877752 163.065967,17.6896973 C163.903373,17.9916193 164.581264,18.3989232 165.099658,18.9116211 C165.618053,19.424319 166.028205,20.0936645 166.330127,20.9196777 C166.632049,21.745691 166.783008,22.7226506 166.783008,23.8505859 C166.783008,27.1774255 165.27342,29.3649036 162.254199,30.4130859 C162.869437,31.1080764 163.632775,32.3954984 164.544238,34.2753906 L168.269824,42 L163.21123,42 L160.288867,35.4545898 C159.183718,33.1075729 158.500132,31.7176128 158.238086,31.284668 C158.0444,31.2732747 157.400689,31.2675781 156.306934,31.2675781 L152.427539,31.2333984 L152.427539,42 L147.847461,42 Z M157.537402,27.9179688 C157.35511,27.9179688 156.500626,27.9151205 154.973926,27.9094238 C153.447225,27.9037272 152.598438,27.9008789 152.427539,27.9008789 L152.427539,20.3300781 L157.74248,20.3300781 C159.360327,20.3300781 160.562301,20.6206026 161.348438,21.2016602 C162.134574,21.7827177 162.527637,22.6884704 162.527637,23.9189453 C162.527637,25.3203195 162.140271,26.337155 161.365527,26.9694824 C160.590784,27.6018098 159.314755,27.9179688 157.537402,27.9179688 Z M10.0943818,59.75604 C6.51672273,59.75604 3.29390455,58.95204 0.590790909,57.40554 C2.52483636,58.03614 4.63674545,58.36044 6.86949545,58.36044 C15.7154045,58.35984 25.5921545,53.44674 33.2899273,45.21774 C45.7767227,31.86954 48.6083591,13.94274 39.6020182,5.25624 C36.6061091,2.36664 32.5778818,0.76104 27.9102909,0.58524 C29.2008364,0.39564 30.4724727,0.29994 31.7207682,0.29994 C36.7975636,0.29994 41.15995,1.91934 44.3357909,4.98234 C48.7430864,9.23274 50.4821318,15.82314 49.2326545,23.53884 C47.9695864,31.33944 43.81195,39.33654 37.5258591,46.05624 C29.5016091,54.63444 19.2460864,59.75604 10.0946773,59.75604 L10.0943818,59.75604 Z"/>
    <path fill="#E62249" d="M32.7555091,12.57738 C31.7223045,11.50818 31.7223045,11.50818 30.9792364,10.83498 C25.7000545,6.05328 15.6173727,8.05428 8.1991,15.58668 C0.611236364,23.29128 -1.36151364,33.78018 3.79328182,39.01458 C8.94807727,44.24838 19.2780545,42.24558 26.8659182,34.54068 C27.4512136,33.94638 27.9989864,33.33408 28.5169182,32.71038 C27.6066227,33.96138 26.5825773,35.17908 25.4400545,36.33918 C17.1363045,44.77068 5.89425909,47.08428 0.0135318182,41.68368 L-5.90909091e-05,41.69718 L2.03828182,43.76688 C7.80614545,49.62378 19.3581227,47.38938 27.8406227,38.77668 C36.3228273,30.16368 38.4675318,18.48978 32.7555091,12.57738"/>
  </g>
</svg>
