<svg xmlns="http://www.w3.org/2000/svg" width="110" height="39" viewBox="0 0 110 39">
  <g fill="none" fill-rule="evenodd">
    <path fill="#E62249" d="M21.6613606,8.175297 C20.9780979,7.480317 20.9780979,7.480317 20.4867037,7.042737 C16.9955578,3.934632 10.3278365,5.235282 5.42210048,10.131342 C0.404213265,15.139332 -0.900374887,21.957117 2.50851376,25.359477 C5.91740241,28.761447 12.7486613,27.459627 17.7665485,22.451442 C18.1536069,22.065147 18.5158514,21.667152 18.858362,21.261747 C18.2563796,22.074897 17.5791739,22.866402 16.8236187,23.620467 C11.3323127,29.100942 3.89789916,30.604782 0.0089486502,27.094392 L-3.90770751e-05,27.103167 L1.34792463,28.448472 C5.16223793,32.255457 12.8016107,30.803097 18.4111249,25.204842 C24.0204436,19.606392 25.438746,12.018357 21.6613606,8.175297"/>
    <path fill="#242B35" d="M50.5483398,27 L50.5483398,11.9370117 L56.1162109,11.9370117 C56.8750038,11.9370117 57.5329562,11.9711911 58.0900879,12.0395508 C58.6472196,12.1079105 59.1769994,12.2326651 59.6794434,12.4138184 C60.1818873,12.5949716 60.5886215,12.8393539 60.8996582,13.1469727 C61.2106949,13.4545914 61.4567862,13.8561987 61.6379395,14.3518066 C61.8190927,14.8474146 61.909668,15.4335904 61.909668,16.1103516 C61.909668,18.1064553 61.0039153,19.4189422 59.1923828,20.0478516 C59.5615253,20.4648458 60.0195285,21.237299 60.5664062,22.3652344 L62.8017578,27 L59.7666016,27 L58.0131836,23.0727539 C57.3500943,21.6645437 56.9399422,20.8305677 56.7827148,20.5708008 C56.6665033,20.5639648 56.2802767,20.5605469 55.6240234,20.5605469 L53.2963867,20.5400391 L53.2963867,27 L50.5483398,27 Z M56.3623047,18.5507812 C57.4287163,18.5507812 58.1943336,18.3610859 58.6591797,17.9816895 C59.1240258,17.602293 59.3564453,16.9921917 59.3564453,16.1513672 C59.3564453,15.4130822 59.1206078,14.8696306 58.6489258,14.5209961 C58.1772437,14.1723615 57.4560595,13.9980469 56.4853516,13.9980469 L53.2963867,13.9980469 L53.2963867,18.5405273 C53.3989263,18.5405273 53.9081985,18.5422363 54.8242187,18.5456543 C55.740239,18.5490723 56.2529291,18.5507812 56.3623047,18.5507812 Z M65.2012695,27 L65.2012695,11.9780273 L68.1543945,11.9780273 C68.6876003,12.8120159 69.7710856,14.4936397 71.4048828,17.0229492 C73.03868,19.5522587 74.033299,21.0903293 74.3887695,21.637207 C74.4913091,21.7944344 74.6673327,22.0593243 74.9168457,22.4318848 C75.1663587,22.8044452 75.3423823,23.0693352 75.4449219,23.2265625 C75.3970701,20.8818242 75.3731445,19.6650395 75.3731445,19.5761719 L75.3731445,11.9780273 L77.9058594,11.9780273 L77.9058594,27 L74.9117188,27 L68.1338867,16.4384766 L67.6416992,15.628418 C67.696387,17.4331145 67.7237305,18.7011682 67.7237305,19.4326172 L67.7237305,27 L65.2012695,27 Z M84.3249024,24.7749023 L86.3141602,24.7749023 C88.0299891,24.7749023 89.3356401,24.3254439 90.2311524,23.4265137 C91.1266646,22.5275834 91.5744141,21.2168055 91.5744141,19.4941406 C91.5744141,17.6484283 91.1129929,16.306889 90.1901367,15.4694824 C89.2672806,14.6320759 87.8761812,14.2133789 86.0167969,14.2133789 L84.3249024,14.2133789 L84.3249024,24.7749023 Z M81.5460938,27 L81.5460938,11.9780273 L85.89375,11.9780273 C87.2062566,11.9780273 88.3820261,12.1284165 89.4210938,12.4291992 C90.4601615,12.729982 91.3539513,13.1828583 92.1024902,13.7878418 C92.8510291,14.3928253 93.4252422,15.1721144 93.8251465,16.1257324 C94.2250508,17.0793505 94.425,18.1816344 94.425,19.4326172 C94.425,21.8593871 93.693562,23.7272884 92.2306641,25.036377 C90.7677661,26.3454655 88.7409309,27 86.1500977,27 L81.5460938,27 Z M97.3884766,27 L97.3884766,11.9370117 L102.956348,11.9370117 C103.715141,11.9370117 104.373093,11.9711911 104.930225,12.0395508 C105.487356,12.1079105 106.017136,12.2326651 106.51958,12.4138184 C107.022024,12.5949716 107.428758,12.8393539 107.739795,13.1469727 C108.050832,13.4545914 108.296923,13.8561987 108.478076,14.3518066 C108.659229,14.8474146 108.749805,15.4335904 108.749805,16.1103516 C108.749805,18.1064553 107.844052,19.4189422 106.03252,20.0478516 C106.401662,20.4648458 106.859665,21.237299 107.406543,22.3652344 L109.641895,27 L106.606738,27 L104.85332,23.0727539 C104.190231,21.6645437 103.780079,20.8305677 103.622852,20.5708008 C103.50664,20.5639648 103.120413,20.5605469 102.46416,20.5605469 L100.136523,20.5400391 L100.136523,27 L97.3884766,27 Z M103.202441,18.5507812 C103.093066,18.5507812 102.580376,18.5490723 101.664355,18.5456543 C100.748335,18.5422363 100.239063,18.5405273 100.136523,18.5405273 L100.136523,13.9980469 L103.325488,13.9980469 C104.296196,13.9980469 105.01738,14.1723615 105.489063,14.5209961 C105.960745,14.8696306 106.196582,15.4130822 106.196582,16.1513672 C106.196582,16.9921917 105.964162,17.602293 105.499316,17.9816895 C105.03447,18.3610859 104.268853,18.5507812 103.202441,18.5507812 Z M6.67545858,38.841426 C4.30953707,38.841426 2.1782734,38.318826 0.390692597,37.313601 C1.66968526,37.723491 3.06629993,37.934286 4.54282721,37.934286 C10.3926654,37.933896 16.9242031,34.740381 22.0147736,29.391531 C30.2723458,20.715201 32.1449192,9.062781 26.1889868,3.416556 C24.2077791,1.538316 21.5438949,0.494676 18.4571967,0.380406 C19.31064,0.257166 20.1515787,0.194961 20.9770819,0.194961 C24.3343888,0.194961 27.2192539,1.247571 29.3194513,3.238521 C32.2340149,6.001281 33.3840533,10.285041 32.5577685,15.300246 C31.722496,20.370636 28.973033,25.568751 24.8160138,29.936556 C19.5095424,35.512386 12.7275206,38.841426 6.67565397,38.841426 L6.67545858,38.841426 Z"/>
  </g>
</svg>
