<svg xmlns="http://www.w3.org/2000/svg" width="129" height="46" viewBox="0 0 129 46">
  <g fill="none" fill-rule="evenodd">
    <path fill="#D85771" d="M25.5492971,9.642658 C24.7433975,8.822938 24.7433975,8.822938 24.1638044,8.306818 C20.0460425,4.640848 12.1815507,6.174948 6.395298,11.949788 C0.476764364,17.856648 -1.06198064,25.898138 2.95875982,29.911178 C6.97950027,33.923758 15.0368825,32.388278 20.9554162,26.481188 C21.4119466,26.025558 21.8392094,25.556128 22.2431962,25.077958 C21.5331657,26.037058 20.7344103,26.970628 19.8432425,27.860038 C13.3663175,34.324188 4.59752209,36.097948 0.0105548182,31.957488 L-4.60909091e-05,31.967838 L1.58985982,33.554608 C6.08879345,38.044898 15.0993357,36.331858 21.7156857,29.728788 C28.3318053,23.125488 30.0046748,14.175498 25.5492971,9.642658"/>
    <path fill="#8493A8" d="M57.8432617,32 L57.8432617,14.0678711 L64.4716797,14.0678711 C65.3750045,14.0678711 66.1582812,14.1085608 66.8215332,14.1899414 C67.4847852,14.271322 68.1154755,14.4198394 68.713623,14.635498 C69.3117706,14.8511567 69.795978,15.142088 70.1662598,15.5083008 C70.5365416,15.8745135 70.8295074,16.3526175 71.045166,16.942627 C71.2608246,17.5326364 71.3686523,18.2304647 71.3686523,19.0361328 C71.3686523,21.4124468 70.2903754,22.9749312 68.1337891,23.7236328 C68.5732444,24.2200546 69.1184863,25.1396417 69.7695313,26.4824219 L72.4306641,32 L68.8173828,32 L66.7299805,27.324707 C65.9405885,25.6482664 65.4523121,24.6554377 65.2651367,24.3461914 C65.1267897,24.3380533 64.6669961,24.3339844 63.8857422,24.3339844 L61.1147461,24.3095703 L61.1147461,32 L57.8432617,32 Z M64.7646484,21.9414062 C66.034186,21.9414062 66.9456353,21.7155784 67.4990234,21.263916 C68.0524116,20.8122536 68.3291016,20.0859425 68.3291016,19.0849609 C68.3291016,18.2060503 68.0483427,17.5590841 67.4868164,17.144043 C66.9252902,16.7290018 66.0667375,16.5214844 64.9111328,16.5214844 L61.1147461,16.5214844 L61.1147461,21.9291992 C61.236817,21.9291992 61.8430935,21.9312337 62.9335938,21.9353027 C64.024094,21.9393718 64.6344395,21.9414062 64.7646484,21.9414062 Z M75.2522116,32 L75.2522116,14.1166992 L78.7678366,14.1166992 C79.4026054,15.1095427 80.6924688,17.1114758 82.6374655,20.1225586 C84.5824622,23.1336414 85.7665324,24.9646777 86.1897116,25.6157227 C86.3117825,25.8028981 86.5213344,26.1182432 86.8183737,26.5617676 C87.1154129,27.0052919 87.3249649,27.3206371 87.4470358,27.5078125 C87.3900694,24.7164574 87.3615866,23.2679042 87.3615866,23.1621094 L87.3615866,14.1166992 L90.3767233,14.1166992 L90.3767233,32 L86.8122702,32 L78.7434225,19.4267578 L78.157485,18.4624023 C78.2225895,20.6108506 78.2551413,22.1204384 78.2551413,22.9912109 L78.2551413,32 L75.2522116,32 Z M97.983427,29.3510742 L100.351591,29.3510742 C102.394245,29.3510742 103.948591,28.8160047 105.014677,27.7458496 C106.080763,26.6756945 106.613798,25.1152446 106.613798,23.0644531 C106.613798,20.8671765 106.064487,19.2701059 104.965849,18.2731934 C103.867211,17.2762808 102.21114,16.777832 99.9975872,16.777832 L97.983427,16.777832 L97.983427,29.3510742 Z M94.6753216,32 L94.6753216,14.1166992 L99.8511028,14.1166992 C101.413611,14.1166992 102.813336,14.2957339 104.050322,14.6538086 C105.287307,15.0118833 106.351343,15.5510218 107.24246,16.2712402 C108.133578,16.9914587 108.817165,17.9191838 109.293242,19.0544434 C109.769318,20.1897029 110.007353,21.5019457 110.007353,22.9912109 C110.007353,25.8802228 109.136593,28.1039147 107.395048,29.6623535 C105.653503,31.2207923 103.240604,32 100.156279,32 L94.6753216,32 Z M113.500287,32 L113.500287,14.0678711 L120.128705,14.0678711 C121.03203,14.0678711 121.815307,14.1085608 122.478559,14.1899414 C123.141811,14.271322 123.772501,14.4198394 124.370648,14.635498 C124.968796,14.8511567 125.453003,15.142088 125.823285,15.5083008 C126.193567,15.8745135 126.486533,16.3526175 126.702191,16.942627 C126.91785,17.5326364 127.025678,18.2304647 127.025678,19.0361328 C127.025678,21.4124468 125.947401,22.9749312 123.790814,23.7236328 C124.23027,24.2200546 124.775512,25.1396417 125.426557,26.4824219 L128.087689,32 L124.474408,32 L122.387006,27.324707 C121.597614,25.6482664 121.109337,24.6554377 120.922162,24.3461914 C120.783815,24.3380533 120.324021,24.3339844 119.542768,24.3339844 L116.771771,24.3095703 L116.771771,32 L113.500287,32 Z M120.421674,21.9414062 C120.291465,21.9414062 119.681119,21.9393718 118.590619,21.9353027 C117.500119,21.9312337 116.893842,21.9291992 116.771771,21.9291992 L116.771771,16.5214844 L120.568158,16.5214844 C121.723763,16.5214844 122.582315,16.7290018 123.143842,17.144043 C123.705368,17.5590841 123.986127,18.2060503 123.986127,19.0849609 C123.986127,20.0859425 123.709437,20.8122536 123.156049,21.263916 C122.602661,21.7155784 121.691211,21.9414062 120.421674,21.9414062 Z M7.87361782,45.812964 C5.08304373,45.812964 2.56924555,45.196564 0.460816909,44.010914 C1.96937236,44.494374 3.61666145,44.743004 5.35820645,44.743004 C12.2580155,44.742544 19.9618805,40.975834 25.9661433,34.666934 C35.7058437,24.433314 37.9145201,10.689434 30.8895742,4.029784 C28.5527651,1.814424 25.4107478,0.583464 21.7700269,0.448684 C22.7766524,0.303324 23.7685287,0.229954 24.7421992,0.229954 C28.7020996,0.229954 32.104761,1.471494 34.5819169,3.819794 C38.0196074,7.078434 39.3760628,12.131074 38.4014705,18.046444 C37.4162774,24.026904 34.173321,30.158014 29.2701701,35.309784 C23.0112551,41.886404 15.0119474,45.812964 7.87384827,45.812964 L7.87361782,45.812964 Z"/>
  </g>
</svg>
