<svg xmlns="http://www.w3.org/2000/svg" width="16" height="8" viewBox="0 0 16 8">
  <path fill="#90A4B3" d="M3.41011636,3.0040972 L12.5859632,3.00017681 L11.2928932,1.70710678 C10.9023689,1.31658249 10.9023689,0.683417511 11.2928932,0.292893219 C11.6834175,-0.0976310729 12.3165825,-0.0976310729 12.7071068,0.292893219 L15.7071068,3.29289322 C16.0976311,3.68341751 16.0976311,4.31658249 15.7071068,4.70710678 L12.7071068,7.70710678 C12.3165825,8.09763107 11.6834175,8.09763107 11.2928932,7.70710678 C10.9023689,7.31658249 10.9023689,6.68341751 11.2928932,6.29289322 L12.5856093,5.00017714 L3.41830744,5.00409388 L4.70710678,6.29289322 C5.09763107,6.68341751 5.09763107,7.31658249 4.70710678,7.70710678 C4.31658249,8.09763107 3.68341751,8.09763107 3.29289322,7.70710678 L0.292893219,4.70710678 C-0.0976310729,4.31658249 -0.0976310729,3.68341751 0.292893219,3.29289322 L3.29289322,0.292893219 C3.68341751,-0.0976310729 4.31658249,-0.0976310729 4.70710678,0.292893219 C5.09763107,0.683417511 5.09763107,1.31658249 4.70710678,1.70710678 L3.41011636,3.0040972 Z"/>
</svg>
