<svg xmlns="http://www.w3.org/2000/svg" width="86" height="18" viewBox="0 0 86 18">
  <g fill="none" fill-rule="evenodd">
    <path fill="#242B35" d="M6.19534849,3.9572458e-15 L83,4.4408921e-16 C84.6568542,1.39730022e-16 86,1.34314575 86,3 L86,15 C86,16.6568542 84.6568542,18 83,18 L6.19534849,18 C4.53849424,18 3.19534849,16.6568542 3.19534849,15 L3.19534849,12 L0.448450405,9.77739332 C0.0191079321,9.42999803 -0.0473233877,8.80032766 0.3000719,8.37098519 C0.34419091,8.31645893 0.393924148,8.26672569 0.448450405,8.22260668 L3.19534849,6 L3.19534849,3 C3.19534849,1.34314575 4.53849424,5.1893405e-15 6.19534849,4.88498131e-15 Z"/>
    <text fill="#FFF" font-family="SourceSansPro-Bold, Source Sans Pro" font-size="12" font-weight="bold">
      <tspan x="8" y="13">To be decided</tspan>
    </text>
  </g>
</svg>
