<svg xmlns="http://www.w3.org/2000/svg" width="18" height="18" viewBox="0 0 18 18">
  <path fill="#242B35" fill-rule="evenodd" d="M9,18 C4.02943725,18 0,13.9705627 0,9 C0,4.02943725 4.02943725,0 9,0 C13.9705627,0 18,4.02943725 18,9 C18,13.9705627 13.9705627,18 9,18 Z M9.58578644,9 L7.29289322,11.2928932 C6.90236893,11.6834175 6.90236893,12.3165825 7.29289322,12.7071068 C7.68341751,13.0976311 8.31658249,13.0976311 8.70710678,12.7071068 L11.7071068,9.70710678 C12.0976311,9.31658249 12.0976311,8.68341751 11.7071068,8.29289322 L8.70710678,5.29289322 C8.31658249,4.90236893 7.68341751,4.90236893 7.29289322,5.29289322 C6.90236893,5.68341751 6.90236893,6.31658249 7.29289322,6.70710678 L9.58578644,9 Z"/>
</svg>
