<svg xmlns="http://www.w3.org/2000/svg" width="18" height="18" viewBox="0 0 18 18">
  <path fill="#242B35" fill-rule="evenodd" d="M9,18 C4.02943725,18 0,13.9705627 0,9 C0,4.02943725 4.02943725,0 9,0 C13.9705627,0 18,4.02943725 18,9 C18,13.9705627 13.9705627,18 9,18 Z M8.41421356,9 L10.7071068,6.70710678 C11.0976311,6.31658249 11.0976311,5.68341751 10.7071068,5.29289322 C10.3165825,4.90236893 9.68341751,4.90236893 9.29289322,5.29289322 L6.29289322,8.29289322 C5.90236893,8.68341751 5.90236893,9.31658249 6.29289322,9.70710678 L9.29289322,12.7071068 C9.68341751,13.0976311 10.3165825,13.0976311 10.7071068,12.7071068 C11.0976311,12.3165825 11.0976311,11.6834175 10.7071068,11.2928932 L8.41421356,9 Z"/>
</svg>
