<svg xmlns="http://www.w3.org/2000/svg" width="187" height="24" viewBox="0 0 187 24">
  <g fill="none" fill-rule="evenodd">
    <path fill="#2C2B29" fill-rule="nonzero" d="M22.3895447,0.157506153 L22.3895447,4.88269073 L21.4435076,4.88269073 C20.970489,4.72518458 20.8128162,5.04019688 20.8128162,5.35520919 C19.3937605,10.2378999 17.817032,14.9630845 16.2403035,19.8457752 C15.9249578,20.9483183 15.6096121,22.0508614 15.1365936,23.1534044 C15.1365936,23.3109106 14.8212479,23.4684167 14.663575,23.4684167 L7.41062395,23.4684167 L7.2529511,22.9958983 C5.3608769,17.1681706 3.4688027,11.1829368 1.73440135,5.35520919 C1.5767285,4.88269073 1.41905565,4.88269073 0.946037099,4.88269073 L0,4.88269073 L0,0.157506153 L10.0910624,0.157506153 L10.0910624,4.88269073 L8.04131535,4.88269073 C9.1450253,9.292863 10.2487352,13.7030353 11.3524452,17.9557014 L11.510118,17.9557014 L15.1365936,4.88269073 L13.0868465,4.88269073 L13.0868465,0.157506153 L22.3895447,0.157506153 Z M38.3145025,6.45775226 L45.0944351,6.45775226 L45.2521079,8.82034454 C45.7251265,8.34782609 46.0404722,7.87530763 46.3558179,7.56029532 C48.2478921,5.9852338 50.455312,5.67022149 52.8204047,6.45775226 C54.5548061,7.08777687 55.3431703,8.50533224 55.3431703,10.3954061 L55.3431703,18.7432322 L56.762226,18.7432322 L56.762226,23.4684167 L49.1939292,23.4684167 L49.1939292,12.9155045 C49.1939292,11.9704676 48.8785835,11.4979491 48.2478921,11.340443 C47.4595278,11.1829368 46.8288364,11.340443 46.3558179,11.9704676 L46.0404722,12.4429861 L45.8827993,12.9155045 L45.8827993,18.7432322 L46.9865093,18.7432322 L46.9865093,23.4684167 L38.3145025,23.4684167 L38.3145025,18.7432322 L39.5758853,18.7432322 L39.5758853,11.1829368 L38.3145025,11.1829368 L38.3145025,6.45775226 Z M79.6247892,11.0254307 L78.5210793,11.0254307 L78.5210793,6.3002461 L85.9317032,6.3002461 L85.9317032,18.7432322 L87.3507589,18.7432322 L87.3507589,23.4684167 L80.4131535,23.4684167 L80.4131535,21.7358491 C80.0978078,22.0508614 79.9401349,22.3658737 79.6247892,22.5233798 C77.8903879,24.0984413 74.8946037,24.4134537 72.8448567,23.4684167 C71.2681282,22.680886 70.4797639,21.4208368 70.4797639,19.6882691 L70.3220911,11.8129614 L70.3220911,11.1829368 L68.9030354,11.1829368 L68.9030354,6.45775226 L76.4713322,6.45775226 L76.4713322,16.538146 C76.4713322,17.0106645 76.4713322,17.4831829 76.6290051,17.7981952 C76.7866779,18.4282199 77.4173693,18.7432322 78.0480607,18.7432322 C78.6787521,18.7432322 79.1517707,18.4282199 79.4671164,17.7981952 C79.6247892,17.6406891 79.6247892,17.3256768 79.6247892,17.0106645 L79.6247892,11.0254307 Z M37.2107926,16.0656276 L26.6467116,16.0656276 C26.6467116,17.0106645 26.6467116,17.9557014 27.1197302,18.7432322 C27.4350759,19.3732568 28.2234401,19.6882691 28.8541315,19.6882691 C29.4848229,19.6882691 30.2731872,19.3732568 30.5885329,18.585726 C30.7462057,18.2707137 30.7462057,17.9557014 30.9038786,17.4831829 L36.737774,17.4831829 C36.5801012,19.3732568 35.7917369,20.9483183 34.2150084,22.0508614 C33.1112985,22.8383921 31.8499157,23.3109106 30.5885329,23.4684167 C28.8541315,23.783429 26.9620573,23.6259229 25.227656,23.1534044 C22.8625632,22.3658737 21.2858347,20.7908121 20.6551433,18.585726 C19.8667791,16.0656276 19.8667791,13.5455291 20.6551433,11.0254307 C21.6011804,8.03281378 23.8086003,6.3002461 26.9620573,5.82772765 C28.381113,5.67022149 29.8001686,5.67022149 31.2192243,6.14273995 C34.3726813,7.08777687 36.1070826,9.13535685 36.737774,12.4429861 C37.0531197,13.7030353 37.0531197,14.8055783 37.2107926,16.0656276 Z M26.8043845,12.7579984 L30.9038786,12.7579984 C30.9038786,11.8129614 30.9038786,11.0254307 29.9578415,10.5529122 C29.1694772,10.0803938 28.381113,10.0803938 27.7504216,10.5529122 C26.8043845,11.0254307 26.8043845,11.8129614 26.8043845,12.7579984 Z M119.358347,16.0656276 L108.794266,16.0656276 C108.794266,17.0106645 108.794266,17.9557014 109.267285,18.7432322 C109.740304,19.5307629 110.370995,19.6882691 111.159359,19.6882691 C111.947723,19.6882691 112.578415,19.2157506 112.893761,18.585726 L113.209106,17.6406891 L119.043002,17.6406891 C118.727656,21.1058244 116.20489,23.4684167 112.736088,23.783429 C111.001686,23.9409352 109.424958,23.9409352 107.848229,23.3109106 C105.483137,22.5233798 103.906408,20.9483183 103.118044,18.585726 C102.32968,16.0656276 102.32968,13.7030353 103.118044,11.1829368 C104.064081,8.03281378 106.429174,6.45775226 109.582631,5.9852338 C111.001686,5.82772765 112.578415,5.82772765 113.99747,6.3002461 C116.993255,7.24528302 118.569983,9.292863 119.200675,12.1279737 C119.358347,13.5455291 119.358347,14.8055783 119.358347,16.0656276 Z M109.109612,12.7579984 L113.209106,12.7579984 C113.209106,11.0254307 112.420742,10.0803938 111.001686,10.2378999 C109.740304,10.3954061 108.951939,11.340443 109.109612,12.7579984 Z M88.6121417,23.4684167 L88.6121417,18.7432322 L90.0311973,18.7432322 L90.0311973,11.1829368 L88.6121417,11.1829368 L88.6121417,6.45775226 L95.2344013,6.45775226 C95.2344013,7.24528302 95.3920742,8.19031993 95.3920742,9.13535685 C95.549747,8.9778507 95.549747,8.82034454 95.549747,8.66283839 C96.0227656,7.24528302 97.1264755,6.45775226 98.5455312,6.3002461 L100.752951,6.3002461 C100.910624,6.3002461 101.068297,6.45775226 101.068297,6.61525841 L101.068297,11.8129614 C100.279933,11.8129614 99.3338954,11.6554553 98.5455312,11.8129614 C96.8111298,12.1279737 96.0227656,13.0730107 95.8650927,14.8055783 L95.8650927,18.585726 L97.7571669,18.585726 L97.7571669,23.3109106 C94.9190556,23.4684167 91.7655987,23.4684167 88.6121417,23.4684167 Z M57.5505902,6.3002461 L59.4426644,6.3002461 L59.4426644,2.9926169 C59.4426644,2.36259229 59.6003373,2.20508614 60.2310287,2.04757998 L65.118887,0.945036916 L65.118887,6.3002461 L67.7993255,6.3002461 L67.7993255,11.0254307 L65.118887,11.0254307 L65.118887,17.6406891 C65.2765599,18.7432322 66.0649241,19.2157506 67.0109612,19.0582445 C67.1686341,19.0582445 67.3263069,19.0582445 67.6416526,18.9007383 L67.6416526,21.8933552 C67.6416526,23.3109106 67.6416526,23.3109106 66.222597,23.4684167 C64.8035413,23.6259229 63.3844857,23.783429 61.8077572,23.4684167 C59.7580101,22.9958983 58.811973,21.7358491 58.811973,19.6882691 L58.811973,11.0254307 L57.3929174,11.0254307 C57.5505902,9.60787531 57.5505902,8.03281378 57.5505902,6.3002461 Z"/>
    <path fill="#ED2327" d="M132.602867,0.157506153 C133.548904,0.315012305 134.494941,0.315012305 135.283305,0.63002461 C138.909781,1.57506153 140.801855,5.9852338 138.909781,9.292863 C138.436762,10.0803938 137.806071,10.5529122 137.017707,11.0254307 C136.702361,11.1829368 136.387015,11.340443 135.913997,11.6554553 C136.071669,11.8129614 136.229342,11.8129614 136.387015,11.8129614 C138.909781,12.6004922 140.013491,14.490566 140.171164,16.8531583 C140.486509,20.3182937 138.279089,22.8383921 134.810287,23.1534044 C133.706577,23.3109106 132.602867,23.3109106 131.65683,23.3109106 L120.777403,23.3109106 L120.777403,18.585726 L122.82715,18.585726 L122.82715,4.72518458 L120.777403,4.72518458 L120.777403,0 C124.876897,0.157506153 128.661046,0.157506153 132.602867,0.157506153 Z M129.134064,14.0180476 L129.134064,18.585726 C129.134064,18.7432322 129.291737,18.9007383 129.44941,18.9007383 L132.129848,18.9007383 C132.76054,18.9007383 133.391231,18.585726 133.706577,17.9557014 C134.494941,16.538146 133.706577,14.6480722 132.129848,14.3330599 C131.183811,14.0180476 130.237774,14.0180476 129.134064,14.0180476 Z M129.134064,9.60787531 C130.080101,9.60787531 130.868465,9.60787531 131.814503,9.45036916 C132.918212,9.292863 133.548904,8.34782609 133.548904,7.24528302 C133.548904,6.14273995 132.918212,5.19770304 131.972175,5.04019688 C131.026138,4.88269073 130.080101,4.88269073 129.134064,4.88269073 L129.134064,9.60787531 Z M158.145868,16.0656276 L147.581788,16.0656276 C147.581788,17.1681706 147.581788,18.1132075 148.212479,18.9007383 C148.685497,19.5307629 149.316189,19.6882691 150.104553,19.6882691 C150.892917,19.6882691 151.365936,19.2157506 151.681282,18.585726 L151.996627,17.6406891 L157.830523,17.6406891 C157.67285,19.5307629 156.884486,21.1058244 155.307757,22.2083675 C153.415683,23.6259229 151.365936,23.9409352 149.158516,23.783429 C148.212479,23.783429 147.424115,23.6259229 146.478078,23.3109106 C144.112985,22.680886 142.693929,21.1058244 141.905565,18.9007383 C141.117201,16.2231337 140.959528,13.5455291 142.063238,10.8679245 C143.166948,8.03281378 145.374368,6.45775226 148.370152,6.14273995 C149.789207,5.9852338 151.365936,6.14273995 152.784992,6.45775226 C155.780776,7.40278917 157.357504,9.60787531 157.988196,12.6004922 C157.988196,13.7030353 158.145868,14.8055783 158.145868,16.0656276 Z M151.996627,12.9155045 C151.996627,11.9704676 151.838954,11.0254307 151.05059,10.5529122 C150.262226,10.0803938 149.473862,10.0803938 148.685497,10.7104184 C148.054806,11.1829368 147.897133,11.9704676 147.897133,12.9155045 L151.996627,12.9155045 Z M168.236931,12.9155045 L168.236931,11.340443 C168.236931,10.3954061 167.606239,9.76538146 166.817875,9.76538146 C166.029511,9.76538146 165.241147,10.3954061 165.241147,11.1829368 L165.241147,11.8129614 L159.564924,11.8129614 C159.407251,9.60787531 160.510961,7.71780148 162.560708,6.77276456 C165.556492,5.51271534 168.709949,5.51271534 171.705734,6.93027071 C173.597808,7.87530763 174.543845,9.292863 174.543845,11.340443 L174.543845,18.4282199 L175.962901,18.4282199 L175.962901,23.1534044 L168.867622,23.1534044 C168.867622,22.5233798 168.709949,22.0508614 168.709949,21.2633306 C168.552277,21.4208368 168.394604,21.5783429 168.394604,21.7358491 C166.50253,23.9409352 163.033727,23.9409352 161.141653,22.9958983 C159.722597,22.2083675 159.091906,20.7908121 158.934233,19.2157506 C158.77656,15.7506153 160.510961,13.5455291 164.137437,12.9155045 L167.921585,12.6004922 C167.763912,12.9155045 167.921585,12.9155045 168.236931,12.9155045 Z M168.236931,15.9081214 L166.817875,15.9081214 C165.39882,16.0656276 164.768128,17.1681706 164.925801,18.4282199 C165.083474,19.5307629 166.029511,20.1607875 167.133221,19.6882691 C167.763912,19.5307629 168.079258,19.0582445 168.236931,18.4282199 L168.236931,15.9081214 Z M186.842327,11.1829368 L184.477234,11.1829368 C184.319562,11.1829368 184.161889,11.340443 184.161889,11.4979491 L184.161889,17.4831829 C184.161889,18.7432322 184.950253,19.3732568 186.369309,19.0582445 L186.684654,19.0582445 L186.684654,22.8383921 C186.684654,23.1534044 186.684654,23.3109106 186.369309,23.3109106 C184.634907,23.6259229 182.900506,23.783429 181.008432,23.4684167 C178.958685,22.9958983 178.012648,21.8933552 178.012648,19.8457752 L178.012648,11.0254307 L177.381956,11.0254307 C176.435919,11.0254307 176.593592,11.1829368 176.593592,10.2378999 L176.593592,6.3002461 L178.485666,6.3002461 L178.485666,3.15012305 C178.485666,2.04757998 178.327993,2.20508614 179.431703,2.04757998 C181.008432,1.73256768 182.427487,1.41755537 184.161889,0.945036916 L184.161889,6.3002461 L187,6.3002461 C186.842327,8.03281378 186.842327,9.60787531 186.842327,11.1829368 Z"/>
  </g>
</svg>
