<svg xmlns="http://www.w3.org/2000/svg" width="135" height="26" viewBox="0 0 135 26">
  <path fill="#410093" d="M40.8731526,16.0209582 C40.2118928,16.0859701 37.4591184,16.6996431 36.5338827,16.8969773 C35.5431479,17.1593233 26.4915771,24.1178964 25.8969712,25.8265934 C25.7651482,26.4179391 25.6990717,27.3277776 25.6990717,28.1827827 L25.6327478,29.5637934 C25.6327478,30.5491507 25.9078602,32.1383308 26.0396007,32.9926793 C26.6347015,33.1246732 30.9415519,33.0094248 31.7341397,33.1404336 L31.6366336,34.907904 C30.8621941,34.8517573 25.3931896,34.8648911 22.2687041,34.8648911 C20.682621,34.8648911 15.5840077,35.0389128 14.0174754,34.9919598 L14.3136234,33.311172 C15.1726177,33.2448467 18.7291989,33.4638515 19.5110627,32.6426657 C19.8994373,32.235192 19.7756986,31.7984958 19.7756986,29.4321278 L19.7756986,28.3147766 C19.7756986,27.7887711 19.7756986,26.8021004 19.6431332,25.8814267 C19.3129982,24.8950843 11.3405116,14.9896328 9.2924706,13.4122731 C8.69736979,13.2152673 4.9708541,12.8444038 4.0460308,12.6467414 L4,11.1325877 C4.46138048,10.9024192 8.60522569,11.1885701 12.6265695,11.0404874 C15.2694639,10.9432979 21.2996648,11.0404874 22.0436646,11.1286475 L21.8530244,12.4630335 C21.0604366,12.6605318 17.2421068,12.7335881 16.250877,12.9962625 C18.8277774,16.8093097 22.9019989,21.7183658 24.2236111,23.6250536 C24.9507824,22.573371 31.3378458,18.2008273 31.5358278,16.6888078 C30.5444331,16.490817 27.2629644,16.0209582 26.7341875,16.0209582 L26.4203036,14.2994558 C27.3198842,14.1594176 32.0500035,14.2994558 34.4016169,14.2994558 C36.4310971,14.2994558 40.7677272,14.2994558 42,14.3999288 L40.8731526,16.0209582 Z M54.9134138,34 C54.6152663,33.9570468 51.2216619,33.9575521 49.984257,33.9575521 C49.2580828,33.9575521 45.5621031,33.9361597 44.9213314,33.9361597 L45.1134445,32.3564909 C45.9678069,32.3142114 47.5557844,31.9697432 48.2819586,31.8848474 C47.812499,30.8226389 46.2632485,27.4481982 45.921808,26.8106372 C45.0253363,26.8106372 41.8013529,26.9111984 40.9048812,27.0811585 C40.7344146,27.3789677 39.5105388,28.5744155 39.2977938,30.1897944 C39.8956107,30.3171381 41.0418633,30.5627296 41.7245753,30.647457 L41.4720885,32.2618253 C40.7467599,32.2193774 37.8527174,32.3041048 37.1698363,32.2618253 C36.5288954,32.2618253 33.5551157,32.2688999 33,32.3537958 L33.5286494,30.647457 C34.2111923,30.5627296 35.7849643,30.0754208 36.3817665,29.9485824 C37.2785764,28.6734606 41.4299792,20.5906703 41.771758,19.8250919 C41.2162195,19.6972428 40.2735798,19.2528872 39.6752556,19.1679914 L39.5932354,18 C40.3190714,18.0431217 43.9262664,18.1509259 44.309478,18.1318917 C45.16773,18.0901176 48.3534937,18.1057829 49.0794988,18.0640088 L48.8104389,19.2111131 C48.1703436,19.2528872 47.1289415,19.563835 46.5309555,19.6911788 C46.8297794,20.5839325 48.0184795,23.4621369 48.9149512,25.587733 C49.5980014,27.1188899 50.7315705,30.1185425 51.7985087,31.861939 C52.5238374,31.9892827 54.1885925,32.4760862 54.956876,32.5183656 L55,32.9443608 L54.9134138,34 Z M43.7493735,20.4757915 L43.7070951,20.2077969 C42.9388116,21.9938097 41.6340995,24.8000885 41.3782304,25.4799289 L45.5820585,25.478076 C45.0696441,24.1600009 44.1335998,21.5809532 43.7493735,20.4757915 Z M78.7800989,29.8513934 C78.2126596,29.8073375 75.482235,29.8112828 74.0860507,29.8513934 C72.966332,29.8832847 70.3063279,29.7488154 69.0400629,29.8042141 L68.9433977,28.2397354 C69.3796136,28.1953507 72.1036809,28.0086062 72.6271073,27.9198368 C72.8015285,27.0839248 72.7180672,25.8977025 72.7180672,24.8865531 L72.6507439,23.0444234 C71.2540705,23.0444234 62.02116,23.5288742 61.6281418,23.5721082 L60.9536047,23.6608776 C60.9536047,26.1705862 61.0845021,26.9635929 61.2592493,27.8879455 C62.0017617,28.019127 64.6650261,28.1953507 65.2319764,28.2841201 L65.1975812,29.9891504 C64.5422792,29.9449301 60.4469683,29.9891504 59.1807033,29.9891504 C57.6532956,29.9891504 53.938125,29.9559441 53.0648781,30 L53.1832237,28.2397354 C53.8817234,28.1953507 56.5223293,27.9331522 57.0899316,27.8455335 C57.1773052,26.6995861 57.220829,24.8957588 57.220829,23.0023401 L57.220829,20.6690196 C57.220829,19.8766704 57.1773052,17.5874059 57.1332924,16.7943992 C56.5656901,16.7076024 53.9250842,16.5290773 53.1393739,16.4851857 L53,15.1521651 C53.5237525,15.1968785 57.1689916,15.0961088 59.0894175,15.0961088 C60.879435,15.0961088 64.9380686,15.131781 65.4182973,15.0872319 L65.2759892,16.4851857 C64.4465921,16.5290773 61.6961172,16.7491925 61.2160515,16.83714 C61.0845021,17.4981434 60.9536047,18.0707061 60.9536047,20.1834181 L60.8892156,21.2848164 C61.6749259,21.2848164 71.4141468,21.2461852 72.6271074,21.0719342 L72.6271074,19.5547992 C72.6271074,17.6179821 72.9252534,15.5238459 72.7073085,14.95079 C72.2267538,14.8194442 69.6247813,14.4499004 68.7947323,14.4053513 L68.9111217,13 C69.4352002,13.0443847 71.8880181,13.0294254 73.7210704,13.0736457 C75.6419852,13.0736457 78.4327237,13.1532094 79,13.065262 L78.8710588,14.2227165 C78.3037825,14.2671012 75.7727196,14.9124877 75.7727196,14.9124877 C75.7727196,14.9124877 75.5999285,16.1187654 75.7269137,17.8538786 C75.8317294,19.2947377 75.8636794,22.1287834 75.8636794,22.1287834 C75.936056,25.2843716 76.1290604,27.8343551 75.9548022,27.9670161 C75.7448448,28.1249928 77.9590154,28.2609415 78.5696525,28.3495465 L78.8086258,28.7677491 L78.7800989,29.8513934 Z M101.99364,22.0060328 C102.200381,27.3495029 97.3423651,30 91.0324424,30 C88.4064527,30 85.2101757,29.4974772 82.4813846,27.8530059 C80.3524851,26.5699065 80,24.9056675 80,22.824021 C80,18.5210474 84.663962,14.9540508 91.8041034,15.0004476 C94.5215083,15.0004476 97.1411542,15.4167115 99.2585048,17.0752326 C101.147968,18.5551915 101.467108,19.2901882 101.81146,20.9095008 L101.99364,22.0060328 Z M98.491561,22.3714891 C98.6493415,17.949583 95.2033807,16.7725101 90.8502628,17.0726187 C88.572529,17.2297796 83.9373579,18.4391996 83.9373579,22.3714891 C83.9373579,26.2577085 87.4929519,28.3622267 92.2372681,27.9466163 C95.9091642,27.6257597 97.8362021,26.2678374 98.3092186,24.38109 L98.491561,22.3714891 Z M132.639991,30.8799022 L131.017289,30.7503786 L131,27.479623 L133.054399,27.7178684 L134.895569,27.7973377 L134.384589,31 L132.639991,30.8799022 Z M134.73019,25.102369 L131.70203,24.828858 C132.01969,23.4039358 131.743244,12.4649598 131.71862,11.2979472 L131.562672,9 C132.40633,9.15471327 132.278498,9.07345631 135.838245,9.4218862 C138.00441,9.63347936 138.287143,9.72383711 139,9.75000186 L138.069548,12.4750356 C137.27566,14.6545102 134.974503,24.3743065 134.73019,25.102369 Z M129.982253,19.8578132 C130.368593,24.8518722 124.397478,29 116.914792,29 C113.802285,29 111.152473,28.6357344 108.08203,26.6756461 C105.556887,25.0631919 104.350569,23.6661337 104.035517,20.915064 C103.47704,16.0424813 109.565222,11.9478356 118.030565,12.0005025 C121.253044,12.0005025 124.357949,12.4736891 126.869746,14.3643157 C129.108893,16.0499818 129.500638,17.6497178 129.909445,19.4961565 L129.982253,19.8578132 Z M126.078317,20.5661256 C126.389821,15.770668 121.603233,14.0238562 116.442806,14.3652941 C113.742147,14.5438397 108.696085,16.0853648 108.696085,20.5661256 C108.696085,24.9935672 112.918958,27.2256318 118.545459,26.7527713 C122.897394,26.3867121 124.709151,24.8063797 125.70093,22.6636695 C125.70093,22.6636695 125.984561,22.0248187 126.078317,20.5661256 Z" transform="translate(-4 -9)"/>
</svg>
